<?xml version="1.0" encoding="UTF-8"?>
<svg version="1.1" xmlns="http://www.w3.org/2000/svg" width="200" height="200">
<path d="M0 0 C66 0 132 0 200 0 C200 66 200 132 200 200 C134 200 68 200 0 200 C0 134 0 68 0 0 Z " fill="#FEFEFE" transform="translate(0,0)"/>
<path d="M0 0 C3.20384041 1.29516953 4.5905657 2.51997358 6.8125 5.125 C9.22650512 10.96943346 8.50506234 16.26955667 6.375 22.125 C4.17183656 27.16867058 1.07306884 32.46346558 -4 35 C-13.25121578 35.0711632 -20.08082839 33.58562509 -26.9375 27.3125 C-29.48688391 23.21803494 -30.47984531 19.82511121 -30 15 C-28.23496686 12.07856583 -27.04152365 10.52076183 -24 9 C-22.6078125 9.185625 -22.6078125 9.185625 -21.1875 9.375 C-18.02923721 9.34963013 -18.02923721 9.34963013 -16.6015625 7.515625 C-15.75673652 6.2765469 -14.94619285 5.0132293 -14.17578125 3.7265625 C-10.73752926 -1.32229923 -5.43055483 -0.55608881 0 0 Z " fill="#FEF7E5" transform="translate(36,80)"/>
<path d="M0 0 C4.25676762 0.0546518 6.94723214 0.34756764 10.25 3.25 C13.34932245 6.88368839 13.77450033 10.16414362 13.59765625 14.78515625 C12.51118286 22.4881305 8.90760647 28.9641791 3.25 34.25 C-1.38560401 36.567802 -8.35788567 34.99924299 -13.14453125 33.5 C-17.91464421 31.31103803 -20.68190185 28.46863495 -23.75 24.25 C-23.09 23.92 -22.43 23.59 -21.75 23.25 C-20.8425 24.054375 -19.935 24.85875 -19 25.6875 C-16.64690092 27.66142671 -14.88061954 28.88877467 -11.75 29.25 C-12.74 28.59 -13.73 27.93 -14.75 27.25 C-14.42 26.59 -14.09 25.93 -13.75 25.25 C-9.46 26.57 -5.17 27.89 -0.75 29.25 C0.013125 28.486875 0.77625 27.72375 1.5625 26.9375 C3.03158241 25.46841759 4.51558531 24.01188903 6.0625 22.625 C7.57680994 21.17438937 7.57680994 21.17438937 7.25 18.25 C6.59 17.92 5.93 17.59 5.25 17.25 C4.816875 16.30125 4.38375 15.3525 3.9375 14.375 C2.05449557 10.88795476 0.89502498 9.72536725 -2.75 8.25 C-5.49239143 8.46329449 -5.49239143 8.46329449 -7.75 9.25 C-7.75 10.24 -7.75 11.23 -7.75 12.25 C-6.43 12.25 -5.11 12.25 -3.75 12.25 C-3.75 13.24 -3.75 14.23 -3.75 15.25 C-6.06 14.92 -8.37 14.59 -10.75 14.25 C-11.36514196 6.99132492 -11.36514196 6.99132492 -8.3125 3.3125 C-7.466875 2.631875 -6.62125 1.95125 -5.75 1.25 C-4.11069007 -0.38930993 -2.25256326 0.03998633 0 0 Z " fill="#F9C32D" transform="translate(30.75,79.75)"/>
<path d="M0 0 C5.53846154 3.07692308 5.53846154 3.07692308 7 6 C7.55564585 11.438918 7.46467618 15.52479327 4 20 C5.32 20.66 6.64 21.32 8 22 C7.67 23.32 7.34 24.64 7 26 C3.64455768 26.38347912 2.36053398 26.27514436 -0.375 24.1875 C-1.24125 23.465625 -2.1075 22.74375 -3 22 C-4.19625 21.525625 -5.3925 21.05125 -6.625 20.5625 C-10.46744029 18.78359246 -11.51736317 17.92462691 -13 14 C-13.71492711 9.59426167 -13.55928689 6.87621613 -11.125 3.0625 C-7.51233599 -0.44390919 -4.9799029 -0.41499191 0 0 Z " fill="#F9C432" transform="translate(107,89)"/>
<path d="M0 0 C1.65 0 3.3 0 5 0 C5.08685287 3.29150125 5.14033895 6.5827096 5.1875 9.875 C5.22520508 11.28072266 5.22520508 11.28072266 5.26367188 12.71484375 C5.27817383 14.05869141 5.27817383 14.05869141 5.29296875 15.4296875 C5.31653442 16.67081299 5.31653442 16.67081299 5.34057617 17.93701172 C5.22818604 18.61779785 5.1157959 19.29858398 5 20 C1.30255904 22.46496064 -1.71032516 22.66459751 -6 22 C-8.5 20.5625 -8.5 20.5625 -10 18 C-10.76962747 13.63076072 -10.78023748 10.23037449 -8.375 6.4375 C-5.40106977 4.6374896 -3.41756151 4.68931259 0 5 C0 3.35 0 1.7 0 0 Z " fill="#F9C22B" transform="translate(86,88)"/>
<path d="M0 0 C2.475 0.495 2.475 0.495 5 1 C5.33 3.97 5.66 6.94 6 10 C6.99 8.68 7.98 7.36 9 6 C10.65 6.33 12.3 6.66 14 7 C13.37240135 9.92879371 12.41377341 12.36095629 11 15 C11.515625 15.4125 12.03125 15.825 12.5625 16.25 C13.2740625 17.11625 13.2740625 17.11625 14 18 C13.6875 20.1875 13.6875 20.1875 13 22 C9.73045798 21.43628586 8.17424117 20.50037734 6 18 C5.67 19.32 5.34 20.64 5 22 C3.35 22 1.7 22 0 22 C0 14.74 0 7.48 0 0 Z " fill="#F9C129" transform="translate(50,88)"/>
<path d="M0 0 C1.65 0 3.3 0 5 0 C5.33 3.63 5.66 7.26 6 11 C6.99 11.33 7.98 11.66 9 12 C9 8.04 9 4.08 9 0 C10.98 0 12.96 0 15 0 C15.08075665 2.29109597 15.13907731 4.58299267 15.1875 6.875 C15.22230469 8.15117188 15.25710937 9.42734375 15.29296875 10.7421875 C15.19628906 11.81726563 15.09960938 12.89234375 15 14 C11.90219052 16.06520632 11.0459519 16.29477024 7.5 16.3125 C6.33984375 16.33763672 6.33984375 16.33763672 5.15625 16.36328125 C3 16 3 16 1.23046875 14.8984375 C-0.61607631 12.04948226 -0.28700514 9.66250637 -0.1875 6.3125 C-0.16042969 5.13300781 -0.13335937 3.95351562 -0.10546875 2.73828125 C-0.07066406 1.83464844 -0.03585938 0.93101563 0 0 Z " fill="#F9C32F" transform="translate(117,94)"/>
<path d="M0 0 C3.96 0 7.92 0 12 0 C12 5.44328904 11.47311819 6.20127698 8 10 C9.65 10.33 11.3 10.66 13 11 C12.67 12.65 12.34 14.3 12 16 C8.04 16 4.08 16 0 16 C0 9.80480491 1.01457844 9.28432818 5 5 C3.35 4.67 1.7 4.34 0 4 C0 2.68 0 1.36 0 0 Z " fill="#F9C432" transform="translate(144,94)"/>
<path d="M0 0 C3.96 0 7.92 0 12 0 C13 4 13 4 11.78515625 6.140625 C11.21667969 6.83671875 10.64820313 7.5328125 10.0625 8.25 C9.49660156 8.95640625 8.93070313 9.6628125 8.34765625 10.390625 C7.90292969 10.92171875 7.45820313 11.4528125 7 12 C8.98 12 10.96 12 13 12 C12.67 13.32 12.34 14.64 12 16 C8.37 16 4.74 16 1 16 C0 11 0 11 0.99609375 9.19921875 C2.33072917 7.79947917 3.66536458 6.39973958 5 5 C3.35 4.67 1.7 4.34 0 4 C0 2.68 0 1.36 0 0 Z " fill="#F9C32F" transform="translate(159,94)"/>
<path d="M0 0 C2.97 0.495 2.97 0.495 6 1 C6 2.32 6 3.64 6 5 C7.32 5 8.64 5 10 5 C10 6.32 10 7.64 10 9 C8.68 9 7.36 9 6 9 C6 11.31 6 13.62 6 16 C7.32 16 8.64 16 10 16 C9.67 17.32 9.34 18.64 9 20 C5.625 20.1875 5.625 20.1875 2 20 C-0.03120707 16.95318939 -0.24659875 16.39881676 -0.1953125 12.98828125 C-0.18886719 12.23095703 -0.18242187 11.47363281 -0.17578125 10.69335938 C-0.15902344 9.90767578 -0.14226562 9.12199219 -0.125 8.3125 C-0.11597656 7.51521484 -0.10695312 6.71792969 -0.09765625 5.89648438 C-0.07411585 3.930861 -0.03824547 1.96539225 0 0 Z " fill="#F9C534" transform="translate(184,90)"/>
<path d="M0 0 C4.875 0.875 4.875 0.875 6 2 C6.08651611 3.41570123 6.10704904 4.835595 6.09765625 6.25390625 C6.09443359 7.10791016 6.09121094 7.96191406 6.08789062 8.84179688 C6.07951172 9.73962891 6.07113281 10.63746094 6.0625 11.5625 C6.05798828 12.46419922 6.05347656 13.36589844 6.04882812 14.29492188 C6.03700225 16.53001314 6.0205222 18.76497437 6 21 C4.33388095 21.042721 2.66617115 21.04063832 1 21 C0 20 0 20 -0.11352539 18.05053711 C-0.10567017 16.8015564 -0.10567017 16.8015564 -0.09765625 15.52734375 C-0.09443359 14.62822266 -0.09121094 13.72910156 -0.08789062 12.80273438 C-0.07951172 11.85720703 -0.07113281 10.91167969 -0.0625 9.9375 C-0.05798828 8.98810547 -0.05347656 8.03871094 -0.04882812 7.06054688 C-0.0370011 4.70696935 -0.02052025 2.35351523 0 0 Z " fill="#F9C73B" transform="translate(175,89)"/>
<path d="M0 0 C3.85500559 0.55071508 5.31393777 2.31393777 8 5 C10.1381966 5.7872678 10.1381966 5.7872678 12 6 C11.01 5.34 10.02 4.68 9 4 C9.33 3.34 9.66 2.68 10 2 C11.93930548 2.61937508 13.87639013 3.24570688 15.8125 3.875 C16.89144531 4.22304687 17.97039063 4.57109375 19.08203125 4.9296875 C22 6 22 6 25 8 C25 9.32 25 10.64 25 12 C16.86931586 11.7289772 9.4734587 11.37502073 3.40234375 5.4375 C0 1.49495125 0 1.49495125 0 0 Z " fill="#F9C73B" transform="translate(7,103)"/>
<path d="M0 0 C1.66611905 -0.042721 3.33382885 -0.04063832 5 0 C6 1 6 1 6.09765625 4.37890625 C6.09098369 5.77347077 6.07902532 7.16801743 6.0625 8.5625 C6.05798828 9.27341797 6.05347656 9.98433594 6.04882812 10.71679688 C6.03700864 12.47790013 6.01907263 14.23896036 6 16 C4.33388095 16.042721 2.66617115 16.04063832 1 16 C0 15 0 15 -0.09765625 11.62109375 C-0.09098369 10.22652923 -0.07902532 8.83198257 -0.0625 7.4375 C-0.05798828 6.72658203 -0.05347656 6.01566406 -0.04882812 5.28320312 C-0.03700864 3.52209987 -0.01907263 1.76103964 0 0 Z " fill="#F9C638" transform="translate(67,94)"/>
<path d="M0 0 C-0.37253906 0.60328125 -0.74507812 1.2065625 -1.12890625 1.828125 C-1.83853516 3.02695313 -1.83853516 3.02695313 -2.5625 4.25 C-3.03816406 5.03890625 -3.51382812 5.8278125 -4.00390625 6.640625 C-5.15422768 9.36530791 -4.99601018 10.2836086 -4 13 C-3.65939189 14.66519519 -3.32441604 16.33157466 -3 18 C-5.79872437 15.47211993 -7.45773019 13.79588866 -8 10 C-8.99 11.485 -8.99 11.485 -10 13 C-10.66 12.67 -11.32 12.34 -12 12 C-12.35671933 8.16526716 -12.29771416 6.44657125 -10.125 3.1875 C-6.76003405 -0.27643554 -4.71354096 -0.10246828 0 0 Z " fill="#F9C433" transform="translate(18,89)"/>
<path d="M0 0 C4.55555556 0.55555556 4.55555556 0.55555556 6 2 C6.27314815 7.73611111 6.27314815 7.73611111 6 10 C5.34 10.66 4.68 11.32 4 12 C1.4375 11.75 1.4375 11.75 -1 11 C-2.50662097 7.98675805 -2.17770373 5.31713623 -2 2 C-1.34 1.34 -0.68 0.68 0 0 Z " fill="#FEFCF7" transform="translate(102,94)"/>
<path d="M0 0 C2.475 0.495 2.475 0.495 5 1 C5 5.95 5 10.9 5 16 C3.35 16 1.7 16 0 16 C0 10.72 0 5.44 0 0 Z " fill="#F9C431" transform="translate(136,94)"/>
<path d="M0 0 C1.32 0 2.64 0 4 0 C4 2.64 4 5.28 4 8 C2.35 7.67 0.7 7.34 -1 7 C-1.04254356 5.00045254 -1.04080783 2.99958364 -1 1 C-0.67 0.67 -0.34 0.34 0 0 Z " fill="#FEFBF1" transform="translate(82,98)"/>
<path d="M0 0 C2.0625 0.4375 2.0625 0.4375 4 1 C3.67 2.65 3.34 4.3 3 6 C1.35 5.67 -0.3 5.34 -2 5 C-1.125 1.125 -1.125 1.125 0 0 Z " fill="#F9C73E" transform="translate(137,86)"/>
<path d="M0 0 C2.0625 0.4375 2.0625 0.4375 4 1 C4.33 2.32 4.66 3.64 5 5 C3.35 5.33 1.7 5.66 0 6 C-0.38218767 4.34385343 -0.71395102 2.67542976 -1 1 C-0.67 0.67 -0.34 0.34 0 0 Z " fill="#F9C83F" transform="translate(68,86)"/>
</svg>
